<!DOCTYPE svg PUBLIC "-//W3C//DTD SVG 1.1//EN" "http://www.w3.org/Graphics/SVG/1.1/DTD/svg11.dtd">
<!-- Uploaded to: SVG Repo, www.svgrepo.com, Transformed by: SVG Repo Mixer Tools -->
<svg fill="#ffffff" height="800px" width="800px" version="1.1" id="Layer_1" xmlns="http://www.w3.org/2000/svg" xmlns:xlink="http://www.w3.org/1999/xlink" viewBox="0 0 511.998 511.998" xml:space="preserve" stroke="#ffffff">
<g id="SVGRepo_bgCarrier" stroke-width="0"/>
<g id="SVGRepo_tracerCarrier" stroke-linecap="round" stroke-linejoin="round"/>
<g id="SVGRepo_iconCarrier"> <g> <g> <path d="M57.478,344.985c-5.121-39.435-10.447-79.589-15.597-118.419c-4.282-32.286-8.711-65.673-13.026-98.677 c-0.569-4.35-4.552-7.42-8.907-6.847c-4.35,0.569-7.415,4.557-6.847,8.907c4.317,33.019,8.746,66.413,13.029,98.707 c5.149,38.82,10.473,78.962,15.591,118.376c0.52,4.004,3.936,6.922,7.868,6.922c0.341,0,0.685-0.022,1.033-0.067 C54.974,353.32,58.043,349.335,57.478,344.985z"/> </g> </g> <g> <g> <path d="M143.521,61.66c-4.387,0-7.944,3.557-7.944,7.944v59.315c0,4.387,3.557,7.944,7.944,7.944 c4.387,0,7.944-3.557,7.944-7.944V69.603C151.465,65.216,147.908,61.66,143.521,61.66z"/> </g> </g> <g> <g> <path d="M511.658,228.97c-0.956-3.162-3.77-5.401-7.065-5.625c-10.703-0.728-38.057-4.877-60.829-27.649 c-7.586-7.586-25.466-28.7-27.649-60.83c-0.269-3.964-3.424-7.118-7.388-7.388c-10.703-0.728-38.058-4.877-60.83-27.649 c-7.586-7.586-25.466-28.7-27.649-60.829c-0.483-7.112-9.809-9.981-14.196-4.338c-8.076,10.384-16.038,20.662-23.942,30.883 l4.866-37.279c0.925-7.088-7.699-11.731-13.101-7.013c-8.083,7.054-30.36,23.461-62.564,23.461 c-10.729,0-38.301-2.286-62.564-23.462c-2.992-2.612-7.455-2.611-10.447,0c-8.083,7.054-30.36,23.461-62.564,23.461 c-10.729,0-38.301-2.286-62.564-23.462C7.789,16.554-0.822,21.141,0.063,28.22c2.981,23.843,6.176,48.907,9.77,76.621 c0.563,4.348,4.709,7.484,9.047,6.835c4.224-0.632,7.259-4.637,6.709-8.878c-2.688-20.734-5.154-39.982-7.473-58.344 c23.779,14.345,47.332,16.146,57.618,16.146c32.032,0,55.648-13.908,67.765-23.115c26.952,20.76,56.053,23.115,67.812,23.115 c24.616,0,44.259-8.213,57.535-16.194l-5.883,45.068c-0.042,0.322-0.058,0.64-0.061,0.956 c-25.638,33.288-88.154,115.059-94.917,123.901c-0.49-0.094-16.518-0.148-16.518-0.148v-51.371c0-4.387-3.557-7.944-7.944-7.944 s-7.944,3.557-7.944,7.944v51.371H67.26c-4.69,0-8.446,4.23-7.888,8.891c0,0,13.726,113.499,14.001,114.16 c-1.007,1.295-1.999,2.577-3.008,3.875c-28.636,36.818-25.359,89.453,7.622,122.434l2.063,2.063 c17.952,17.952,41.723,27.104,65.595,27.103c19.986-0.001,40.043-6.417,56.804-19.453L379.144,337.36 c3.477-2.674,4.129-7.662,1.454-11.14c-2.674-3.478-7.661-4.128-11.141-1.454L192.73,460.686 c-30.507,23.726-74.119,21.011-101.445-6.316l-2.063-2.063c-27.327-27.327-30.043-70.939-6.316-101.445 C124.2,297.769,270.227,106.757,307.337,58.906c6.671,26.956,22.051,44.884,29.325,52.158 c22.65,22.65,49.183,29.513,64.261,31.572c4.38,33.738,23.292,55.98,31.606,64.295c17.406,17.406,37.103,25.488,52.134,29.233 l-95.881,73.742c-3.477,2.674-4.129,7.662-1.454,11.14c2.674,3.478,7.662,4.129,11.14,1.454l110.429-84.93 C511.515,235.555,512.614,232.132,511.658,228.97z M86.97,319.71l-10.757-89.639h7.06c14.213,14.556,33.23,23.461,53.418,25.112 C120.443,276.358,103.904,297.846,86.97,319.71z M148.678,239.549c-0.445-0.052-0.898-0.074-1.361-0.049 c-1.257,0.069-2.535,0.104-3.797,0.104c-12.34,0-24.339-3.36-34.774-9.533h47.191 C153.524,233.224,151.105,236.383,148.678,239.549z"/> </g> </g> <g> <g> <path d="M329.921,321.52l-48.308-48.308l36.325-36.325c3.061-3.06,3.061-8.174,0-11.234c-3.06-3.06-8.174-3.06-11.234,0 l-36.325,36.325l-48.308-48.308c-3.318-3.318-8.967-2.977-11.864,0.709L78.621,381.853c-4.45,4.536-8.113,9.701-10.88,15.372 c-1.924,3.943-0.287,8.699,3.655,10.623c3.943,1.922,8.699,0.287,10.623-3.655c2.077-4.258,4.848-8.134,8.234-11.52 c16.726-16.727,43.939-16.726,60.666,0c16.726,16.726,16.726,43.94,0,60.666c-3.008,3.008-6.414,5.539-10.124,7.52 c-3.869,2.068-5.33,6.88-3.262,10.75c2.039,3.816,6.929,5.304,10.75,3.262c4.925-2.631,9.449-5.967,13.466-9.909l167.463-131.578 C332.9,330.486,333.24,324.84,329.921,321.52z M289.349,303.42c-11.743-3.013-22.603-9.123-31.329-17.847 c-8.726-8.726-14.834-19.587-17.847-31.329L289.349,303.42z M178.745,431.404c2.536-17.713-2.993-36.368-16.591-49.965 c-13.597-13.597-32.252-19.127-49.965-16.591l104.979-133.609l4.992,4.992c-0.27,22.626,8.581,44.529,24.626,60.576 c15.809,15.81,37.303,24.651,59.572,24.651c0.338,0,0.676-0.01,1.015-0.014l4.982,4.982L178.745,431.404z"/> </g> </g> <g> <g> <path d="M383.846,159.746c-3.102-3.102-8.132-3.102-11.234,0l-41.942,41.942c-2.893,2.892-3.084,7.67-0.423,10.778 c2.971,3.469,8.425,3.687,11.656,0.456l41.942-41.942C386.948,167.877,386.948,162.847,383.846,159.746z"/> </g> </g> </g>
</svg>